# Blender v3.2.2 OBJ File: 'grave1.blend'
# www.blender.org
mtllib grave1.mtl
o Cylinder
v -0.200500 2.123035 -1.000000
v 0.200500 2.123035 -1.000000
v -0.191987 0.143203 -0.919249
v 0.191987 0.143203 -0.919249
v -0.191987 0.143204 0.919249
v 0.191987 0.143204 0.919249
v -0.200500 2.123036 1.000000
v 0.200500 2.123036 1.000000
v -0.200500 2.855792 0.500000
v 0.200500 2.855792 0.500000
v -0.200500 2.855792 -0.500000
v 0.200500 2.855792 -0.500000
v -1.000000 -0.131264 1.000000
v -1.000000 0.131264 1.000000
v -1.000000 -0.131264 -1.000000
v -1.000000 0.131264 -1.000000
v 1.000000 -0.131264 1.000000
v 1.000000 0.131264 1.000000
v 1.000000 -0.131264 -1.000000
v 1.000000 0.131264 -1.000000
vt 1.000000 1.000000
vt 0.833333 0.500000
vt 1.000000 0.500000
vt 0.833333 1.000000
vt 0.666667 0.500000
vt 0.666667 1.000000
vt 0.500000 0.500000
vt 0.500000 1.000000
vt 0.333333 0.500000
vt 0.042154 0.130000
vt 0.250000 0.010000
vt 0.457846 0.130000
vt 0.333333 1.000000
vt 0.166667 0.500000
vt 0.166667 1.000000
vt -0.000000 0.500000
vt 0.542154 0.370000
vt 0.957846 0.130000
vt 0.542154 0.130000
vt 0.625000 0.000000
vt 0.375000 0.250000
vt 0.375000 0.000000
vt 0.625000 0.250000
vt 0.375000 0.500000
vt 0.625000 0.500000
vt 0.375000 0.750000
vt 0.625000 0.750000
vt 0.375000 1.000000
vt 0.125000 0.750000
vt 0.125000 0.500000
vt 0.875000 0.500000
vt 0.457846 0.370000
vt 0.250000 0.490000
vt 0.042154 0.370000
vt -0.000000 1.000000
vt 0.750000 0.490000
vt 0.957846 0.370000
vt 0.750000 0.010000
vt 0.625000 1.000000
vt 0.875000 0.750000
vn 0.0000 -0.0408 -0.9992
vn 0.0000 -1.0000 0.0000
vn 0.0000 -0.0408 0.9992
vn 0.0000 0.5636 0.8260
vn 1.0000 -0.0041 -0.0059
vn 0.0000 1.0000 0.0000
vn 0.0000 0.5636 -0.8260
vn -1.0000 -0.0031 0.0000
vn -1.0000 0.0000 0.0000
vn 0.0000 0.0000 -1.0000
vn 1.0000 0.0000 0.0000
vn 0.0000 0.0000 1.0000
vn 1.0000 -0.0031 0.0000
vn 1.0000 -0.0041 0.0059
vn -1.0000 -0.0041 0.0059
vn -1.0000 -0.0041 -0.0059
usemtl None
s off
f 2/1/1 3/2/1 1/3/1
f 4/4/2 5/5/2 3/2/2
f 6/6/3 7/7/3 5/5/3
f 8/8/4 9/9/4 7/7/4
f 10/10/5 8/11/5 6/12/5
f 10/13/6 11/14/6 9/9/6
f 12/15/7 1/16/7 11/14/7
f 11/17/8 5/18/8 9/19/8
f 14/20/9 15/21/9 13/22/9
f 16/23/10 19/24/10 15/21/10
f 20/25/11 17/26/11 19/24/11
f 18/27/12 13/28/12 17/26/12
f 19/24/2 13/29/2 15/30/2
f 16/31/6 18/27/6 20/25/6
f 2/1/1 4/4/1 3/2/1
f 4/4/2 6/6/2 5/5/2
f 6/6/3 8/8/3 7/7/3
f 8/8/4 10/13/4 9/9/4
f 6/12/13 4/32/13 10/10/13
f 4/32/14 2/33/14 12/34/14
f 10/10/13 4/32/13 12/34/13
f 10/13/6 12/15/6 11/14/6
f 12/15/7 2/35/7 1/16/7
f 11/17/15 1/36/15 3/37/15
f 3/37/8 5/18/8 11/17/8
f 5/18/16 7/38/16 9/19/16
f 14/20/9 16/23/9 15/21/9
f 16/23/10 20/25/10 19/24/10
f 20/25/11 18/27/11 17/26/11
f 18/27/12 14/39/12 13/28/12
f 19/24/2 17/26/2 13/29/2
f 16/31/6 14/40/6 18/27/6
