# Blender v3.2.2 OBJ File: 'lamp1.blend'
# www.blender.org
mtllib lamp1.mtl
o Cylinder
v 0.000000 -0.163225 -1.000000
v 0.000000 0.163225 -1.000000
v 0.500000 -0.163225 -0.866025
v 0.500000 0.163225 -0.866025
v 0.866025 -0.163225 -0.500000
v 0.866025 0.163225 -0.500000
v 1.000000 -0.163225 0.000000
v 1.000000 0.163225 0.000000
v 0.866025 -0.163225 0.500000
v 0.866025 0.163225 0.500000
v 0.500000 -0.163225 0.866025
v 0.500000 0.163225 0.866025
v -0.000000 -0.163225 1.000000
v -0.000000 0.163225 1.000000
v -0.500000 -0.163225 0.866025
v -0.500000 0.163225 0.866025
v -0.866025 -0.163225 0.500000
v -0.866025 0.163225 0.500000
v -1.000000 -0.163225 -0.000000
v -1.000000 0.163225 -0.000000
v -0.866025 -0.163225 -0.500000
v -0.866025 0.163225 -0.500000
v -0.500000 -0.163225 -0.866025
v -0.500000 0.163225 -0.866025
vt 1.000000 1.000000
vt 0.916667 0.500000
vt 1.000000 0.500000
vt 0.916667 1.000000
vt 0.833333 0.500000
vt 0.833333 1.000000
vt 0.750000 0.500000
vt 0.750000 1.000000
vt 0.666667 0.500000
vt 0.666667 1.000000
vt 0.583333 0.500000
vt 0.583333 1.000000
vt 0.500000 0.500000
vt 0.500000 1.000000
vt 0.416667 0.500000
vt 0.416667 1.000000
vt 0.333333 0.500000
vt 0.333333 1.000000
vt 0.250000 0.500000
vt 0.250000 1.000000
vt 0.166667 0.500000
vt 0.250000 0.010000
vt 0.457846 0.130000
vt 0.457846 0.370000
vt 0.166667 1.000000
vt 0.083333 0.500000
vt 0.083333 1.000000
vt 0.000000 0.500000
vt 0.630000 0.042154
vt 0.510000 0.250000
vt 0.630000 0.457846
vt 0.370000 0.457846
vt 0.250000 0.490000
vt 0.130000 0.457846
vt 0.042154 0.370000
vt 0.010000 0.250000
vt 0.042154 0.130000
vt 0.130000 0.042154
vt 0.370000 0.042154
vt 0.490000 0.250000
vt 0.000000 1.000000
vt 0.750000 0.490000
vt 0.870000 0.457846
vt 0.957846 0.370000
vt 0.990000 0.250000
vt 0.957846 0.130000
vt 0.870000 0.042154
vt 0.750000 0.010000
vt 0.542154 0.130000
vt 0.542154 0.370000
vn 0.2588 0.0000 -0.9659
vn 0.7071 0.0000 -0.7071
vn 0.9659 0.0000 -0.2588
vn 0.9659 0.0000 0.2588
vn 0.7071 0.0000 0.7071
vn 0.2588 0.0000 0.9659
vn -0.2588 0.0000 0.9659
vn -0.7071 0.0000 0.7071
vn -0.9659 0.0000 0.2588
vn -0.9659 0.0000 -0.2588
vn 0.0000 1.0000 0.0000
vn -0.7071 0.0000 -0.7071
vn -0.2588 0.0000 -0.9659
vn 0.0000 -1.0000 0.0000
usemtl None
s off
f 2/1/1 3/2/1 1/3/1
f 4/4/2 5/5/2 3/2/2
f 6/6/3 7/7/3 5/5/3
f 8/8/4 9/9/4 7/7/4
f 10/10/5 11/11/5 9/9/5
f 12/12/6 13/13/6 11/11/6
f 14/14/7 15/15/7 13/13/7
f 16/16/8 17/17/8 15/15/8
f 18/18/9 19/19/9 17/17/9
f 20/20/10 21/21/10 19/19/10
f 14/22/11 10/23/11 6/24/11
f 22/25/12 23/26/12 21/21/12
f 24/27/13 1/28/13 23/26/13
f 15/29/14 19/30/14 23/31/14
f 2/1/1 4/4/1 3/2/1
f 4/4/2 6/6/2 5/5/2
f 6/6/3 8/8/3 7/7/3
f 8/8/4 10/10/4 9/9/4
f 10/10/5 12/12/5 11/11/5
f 12/12/6 14/14/6 13/13/6
f 14/14/7 16/16/7 15/15/7
f 16/16/8 18/18/8 17/17/8
f 18/18/9 20/20/9 19/19/9
f 20/20/10 22/25/10 21/21/10
f 6/24/11 4/32/11 2/33/11
f 2/33/11 24/34/11 22/35/11
f 22/35/11 20/36/11 14/22/11
f 20/36/11 18/37/11 14/22/11
f 18/37/11 16/38/11 14/22/11
f 14/22/11 12/39/11 10/23/11
f 10/23/11 8/40/11 6/24/11
f 6/24/11 2/33/11 14/22/11
f 2/33/11 22/35/11 14/22/11
f 22/25/12 24/27/12 23/26/12
f 24/27/13 2/41/13 1/28/13
f 23/31/14 1/42/14 3/43/14
f 3/43/14 5/44/14 7/45/14
f 7/45/14 9/46/14 11/47/14
f 11/47/14 13/48/14 15/29/14
f 15/29/14 17/49/14 19/30/14
f 19/30/14 21/50/14 23/31/14
f 23/31/14 3/43/14 7/45/14
f 7/45/14 11/47/14 23/31/14
f 11/47/14 15/29/14 23/31/14
o Cylinder.001
v 0.000000 6.399571 0.187878
v 0.000000 -0.017646 0.187878
v -0.162707 6.399571 0.093939
v -0.162707 -0.017646 0.093939
v -0.162707 6.399571 -0.093939
v -0.162707 -0.017646 -0.093939
v 0.000000 6.399571 -0.187878
v 0.000000 -0.017646 -0.187878
v 0.162707 6.399571 -0.093939
v 0.162707 -0.017646 -0.093939
v 0.162707 6.399571 0.093939
v 0.162707 -0.017646 0.093939
v -0.000000 6.156527 -1.182324
v -0.000000 7.299247 -0.332803
v 1.023923 6.156527 -0.591162
v 0.288216 7.299247 -0.166401
v 1.023923 6.156527 0.591162
v 0.288216 7.299247 0.166401
v -0.000000 6.156527 1.182324
v -0.000000 7.299247 0.332803
v -1.023923 6.156527 0.591162
v -0.288216 7.299247 0.166401
v -1.023923 6.156527 -0.591162
v -0.288216 7.299247 -0.166401
vt 1.000000 1.000000
vt 1.000000 0.500000
vt 0.833333 0.500000
vt 0.833333 1.000000
vt 0.666667 0.500000
vt 0.666667 1.000000
vt 0.500000 0.500000
vt 0.500000 1.000000
vt 0.333333 0.500000
vt 0.250000 0.490000
vt 0.457846 0.130000
vt 0.042154 0.130000
vt 0.333333 1.000000
vt 0.166667 0.500000
vt 0.166667 1.000000
vt -0.000000 0.500000
vt 0.542154 0.130000
vt 0.957846 0.370000
vt 0.542154 0.370000
vt 1.000000 1.000000
vt 1.000000 0.500000
vt 0.833333 0.500000
vt 0.833333 1.000000
vt 0.666667 0.500000
vt 0.666667 1.000000
vt 0.500000 0.500000
vt 0.500000 1.000000
vt 0.333333 0.500000
vt 0.542154 0.130000
vt 0.957846 0.130000
vt 0.750000 0.010000
vt 0.333333 1.000000
vt 0.166667 0.500000
vt 0.166667 1.000000
vt -0.000000 0.500000
vt 0.250000 0.010000
vt 0.042154 0.370000
vt 0.042154 0.130000
vt 0.457846 0.370000
vt 0.042154 0.370000
vt 0.250000 0.010000
vt -0.000000 1.000000
vt 0.750000 0.490000
vt 0.750000 0.010000
vt 0.957846 0.130000
vt 0.957846 0.370000
vt 0.750000 0.490000
vt 0.542154 0.370000
vt -0.000000 1.000000
vt 0.250000 0.490000
vt 0.457846 0.370000
vt 0.457846 0.130000
vn -0.5000 0.0000 0.8660
vn -1.0000 0.0000 0.0000
vn -0.5000 0.0000 -0.8660
vn 0.5000 0.0000 -0.8660
vn 0.0000 -1.0000 0.0000
vn 1.0000 0.0000 0.0000
vn 0.5000 0.0000 0.8660
vn 0.0000 1.0000 0.0000
vn -0.4204 -0.5413 0.7282
vn -0.8408 -0.5413 0.0000
vn -0.4204 -0.5413 -0.7282
vn 0.4204 -0.5413 -0.7282
vn 0.8408 -0.5413 0.0000
vn 0.4204 -0.5413 0.7282
usemtl None
s off
f 26/51/15 25/52/15 27/53/15
f 28/54/16 27/53/16 29/55/16
f 30/56/17 29/55/17 31/57/17
f 32/58/18 31/57/18 33/59/18
f 26/60/19 30/61/19 34/62/19
f 34/63/20 33/59/20 35/64/20
f 36/65/21 35/64/21 25/66/21
f 33/67/22 27/68/22 35/69/22
f 38/70/23 37/71/23 39/72/23
f 40/73/24 39/72/24 41/74/24
f 42/75/25 41/74/25 43/76/25
f 44/77/26 43/76/26 45/78/26
f 46/79/19 42/80/19 44/81/19
f 46/82/27 45/78/27 47/83/27
f 48/84/28 47/83/28 37/85/28
f 43/86/22 47/87/22 45/88/22
f 26/51/15 27/53/15 28/54/15
f 28/54/16 29/55/16 30/56/16
f 30/56/17 31/57/17 32/58/17
f 32/58/18 33/59/18 34/63/18
f 30/61/19 26/60/19 28/89/19
f 26/60/19 34/62/19 36/90/19
f 34/62/19 30/61/19 32/91/19
f 34/63/20 35/64/20 36/65/20
f 36/65/21 25/66/21 26/92/21
f 35/69/22 27/68/22 25/93/22
f 27/68/22 31/94/22 29/95/22
f 31/94/22 27/68/22 33/67/22
f 38/70/23 39/72/23 40/73/23
f 40/73/24 41/74/24 42/75/24
f 42/75/25 43/76/25 44/77/25
f 44/77/26 45/78/26 46/82/26
f 42/80/19 46/79/19 40/96/19
f 40/96/19 46/79/19 38/97/19
f 38/97/19 46/79/19 48/98/19
f 46/82/27 47/83/27 48/84/27
f 48/84/28 37/85/28 38/99/28
f 47/87/22 43/86/22 37/100/22
f 37/100/22 43/86/22 39/101/22
f 39/101/22 43/86/22 41/102/22
