# Blender v3.2.2 OBJ File: 'stove1.blend'
# www.blender.org
mtllib stove1.mtl
o Cube.001
v 0.826567 0.589676 0.759308
v 0.826567 0.847905 0.759308
v 0.826567 0.589676 -0.759308
v 0.826567 0.847905 -0.759308
v 1.150243 0.589676 0.759308
v 1.150243 0.847905 0.759308
v 1.150243 0.589676 -0.759308
v 1.150243 0.847905 -0.759308
v 1.000000 1.000000 -1.000000
v 1.000000 -1.000000 -1.000000
v 1.000000 1.000000 1.000000
v 1.000000 -1.000000 1.000000
v -1.000000 1.000000 -1.000000
v -1.000000 -1.000000 -1.000000
v -1.000000 1.000000 1.000000
v -1.000000 -1.000000 1.000000
v 0.000000 -1.000000 -1.000000
v 0.000000 1.000000 1.000000
v 0.000000 -1.000000 1.000000
v 0.000000 1.000000 -1.000000
v -0.500000 -1.000000 -1.000000
v -0.500000 1.000000 1.000000
v -0.500000 -1.000000 1.000000
v -0.500000 1.000000 -1.000000
v -0.713840 1.624755 1.000000
v -1.022555 1.624755 1.000000
v -1.022555 1.624755 -1.000000
v -0.713840 1.624755 -1.000000
vt 0.625000 0.000000
vt 0.375000 0.250000
vt 0.375000 0.000000
vt 0.625000 0.250000
vt 0.375000 0.500000
vt 0.625000 0.500000
vt 0.375000 0.750000
vt 0.625000 0.750000
vt 0.375000 1.000000
vt 0.125000 0.750000
vt 0.125000 0.500000
vt 0.875000 0.500000
vt 0.625000 0.000000
vt 0.625000 0.250000
vt 0.625000 0.250000
vt 0.625000 0.937500
vt 0.375000 1.000000
vt 0.375000 0.937500
vt 0.375000 0.250000
vt 0.375000 0.000000
vt 0.375000 0.500000
vt 0.250000 0.750000
vt 0.250000 0.500000
vt 0.625000 0.500000
vt 0.375000 0.750000
vt 0.625000 0.375000
vt 0.375000 0.375000
vt 0.625000 0.312500
vt 0.375000 0.312500
vt 0.187500 0.750000
vt 0.187500 0.500000
vt 0.625000 0.750000
vt 0.375000 0.875000
vt 0.750000 0.500000
vt 0.125000 0.750000
vt 0.125000 0.500000
vt 0.625000 0.875000
vt 0.812500 0.500000
vt 0.750000 0.750000
vt 0.875000 0.500000
vt 0.812500 0.750000
vt 0.812500 0.500000
vt 0.812500 0.750000
vt 0.625000 0.312500
vt 0.625000 1.000000
vt 0.625000 0.937500
vt 0.625000 1.000000
vt 0.625000 1.000000
vt 0.875000 0.750000
vt 0.625000 0.000000
vt 0.875000 0.750000
vn -1.0000 0.0000 0.0000
vn 0.0000 0.0000 -1.0000
vn 1.0000 0.0000 0.0000
vn 0.0000 0.0000 1.0000
vn 0.0000 -1.0000 0.0000
vn 0.0000 1.0000 0.0000
vn -0.9993 -0.0361 0.0000
vn 0.9461 0.3238 0.0000
usemtl Material
s off
f 2/1/1 3/2/1 1/3/1
f 4/4/2 7/5/2 3/2/2
f 8/6/3 5/7/3 7/5/3
f 6/8/4 1/9/4 5/7/4
f 7/5/5 1/10/5 3/11/5
f 4/12/6 6/8/6 8/6/6
f 15/13/7 27/14/7 13/15/7
f 22/16/4 16/17/4 23/18/4
f 15/13/1 14/19/1 16/20/1
f 10/21/5 19/22/5 17/23/5
f 9/24/3 12/25/3 10/21/3
f 20/26/2 10/21/2 17/27/2
f 24/28/2 17/27/2 21/29/2
f 17/23/5 23/30/5 21/31/5
f 11/32/4 19/33/4 12/25/4
f 20/34/6 11/32/6 9/24/6
f 21/31/5 16/35/5 14/36/5
f 13/15/2 21/29/2 14/19/2
f 18/37/4 23/18/4 19/33/4
f 24/38/6 18/39/6 20/34/6
f 27/40/6 25/41/6 28/42/6
f 24/38/8 25/41/8 22/43/8
f 13/15/2 28/44/2 24/28/2
f 15/45/4 25/46/4 26/47/4
f 2/1/1 4/4/1 3/2/1
f 4/4/2 8/6/2 7/5/2
f 8/6/3 6/8/3 5/7/3
f 6/8/4 2/48/4 1/9/4
f 7/5/5 5/7/5 1/10/5
f 4/12/6 2/49/6 6/8/6
f 15/13/7 26/50/7 27/14/7
f 22/16/4 15/45/4 16/17/4
f 15/13/1 13/15/1 14/19/1
f 10/21/5 12/25/5 19/22/5
f 9/24/3 11/32/3 12/25/3
f 20/26/2 9/24/2 10/21/2
f 24/28/2 20/26/2 17/27/2
f 17/23/5 19/22/5 23/30/5
f 11/32/4 18/37/4 19/33/4
f 20/34/6 18/39/6 11/32/6
f 21/31/5 23/30/5 16/35/5
f 13/15/2 24/28/2 21/29/2
f 18/37/4 22/16/4 23/18/4
f 24/38/6 22/43/6 18/39/6
f 27/40/6 26/51/6 25/41/6
f 24/38/8 28/42/8 25/41/8
f 13/15/2 27/14/2 28/44/2
f 15/45/4 22/16/4 25/46/4
