# Blender v3.2.2 OBJ File: 'bed1.blend'
# www.blender.org
mtllib bed1.mtl
o Cube
v 2.333067 0.482858 -1.300947
v 2.333067 -0.482858 -1.300947
v 2.333067 0.482858 1.300947
v 2.333067 -0.482858 1.300947
v -2.333067 0.482858 -1.300947
v -2.333067 -0.482858 -1.300947
v -2.333067 0.482858 1.300947
v -2.333067 -0.482858 1.300947
v 0.000000 -0.482858 -1.300947
v 0.000000 0.482858 1.300947
v 0.000000 -0.482858 1.300947
v 0.000000 0.482858 -1.300947
v -1.166534 -0.482858 -1.300947
v -1.166534 0.482858 1.300947
v -1.166534 -0.482858 1.300947
v -1.166534 0.482858 -1.300947
v -1.749801 -0.482858 -1.300947
v -1.749801 0.482858 1.300947
v -1.749801 -0.482858 1.300947
v -1.749801 0.482858 -1.300947
v -2.333067 -0.482858 0.000000
v 2.333067 0.482858 0.000000
v -2.333067 0.482858 0.000000
v 2.333067 -0.482858 0.000000
v 0.000000 -0.482858 0.000000
v 0.000000 0.482858 0.000000
v -1.166534 -0.482858 0.000000
v -1.166534 0.482858 0.000000
v -1.749801 -0.482858 0.000000
v -1.749801 0.482858 0.000000
v -2.333067 -0.482858 0.650474
v 2.333067 0.482858 0.650474
v 0.000000 -0.482858 0.650474
v 0.000000 0.482858 0.650474
v -1.166534 -0.482858 0.650474
v -1.166534 0.482858 0.650474
v -1.749801 -0.482858 0.650474
v -1.749801 0.482858 0.650474
v -2.333067 0.482858 0.650474
v 2.333067 -0.482858 0.650474
v 1.166534 -0.482858 1.300947
v 1.166534 0.482858 -1.300947
v 1.166534 -0.482858 -1.300947
v 1.166534 0.482858 1.300947
v 1.166534 0.482858 0.000000
v 1.166534 -0.482858 0.000000
v 1.166534 0.482858 0.650474
v 1.166534 -0.482858 0.650474
v 1.749801 -0.482858 1.300947
v 1.749801 0.482858 -1.300947
v 1.749801 0.482858 0.000000
v 1.749801 0.482858 0.650474
v 1.749801 -0.482858 -1.300947
v 1.749801 0.482858 1.300947
v 1.749801 -0.482858 0.000000
v 1.749801 -0.482858 0.650474
v -2.333067 0.482858 -0.650474
v 2.333067 -0.482858 -0.650474
v -2.333067 -0.482858 -0.650474
v 2.333067 0.482858 -0.650474
v 0.000000 -0.482858 -0.650474
v 0.000000 0.482858 -0.650474
v -1.166534 -0.482858 -0.650474
v -1.166534 0.482858 -0.650474
v -1.749801 -0.482858 -0.650474
v -1.749801 0.482858 -0.650474
v 1.166534 -0.482858 -0.650474
v 1.166534 0.482858 -0.650474
v 1.749801 0.482858 -0.650474
v 1.749801 -0.482858 -0.650474
v -2.041434 -0.482858 -1.300947
v -2.041434 0.482858 1.300947
v -2.041434 -0.482858 1.300947
v -2.041434 0.482858 -1.300947
v -2.041434 -0.482858 0.000000
v -2.041434 0.482858 0.000000
v -2.041434 -0.482858 0.650474
v -2.041434 0.482858 0.650474
v -2.041434 0.482858 -0.650474
v -2.041434 -0.482858 -0.650474
v 2.041434 -0.482858 1.300947
v 2.041434 0.482858 -1.300947
v 2.041434 0.482858 0.000000
v 2.041434 0.482858 0.650474
v 2.041434 -0.482858 -1.300947
v 2.041434 0.482858 1.300947
v 2.041434 -0.482858 0.000000
v 2.041434 -0.482858 0.650474
v 2.041434 0.482858 -0.650474
v 2.041434 -0.482858 -0.650474
v -2.041434 1.042615 1.300947
v -2.333067 1.042615 1.300947
v 2.333067 1.042615 0.650474
v 2.333067 1.042615 1.300947
v -2.333067 1.042615 -0.650474
v -2.333067 1.042615 -1.300947
v 2.041434 1.042615 -1.300947
v 2.333067 1.042615 -1.300947
v 2.333067 1.042615 -0.650474
v 2.333067 1.042615 0.000000
v -2.333067 1.042615 0.650474
v -2.333067 1.042615 0.000000
v 2.041434 1.042615 0.000000
v 2.041434 1.042615 0.650474
v 2.041434 1.042615 -0.650474
v -2.041434 1.042615 -1.300947
v -2.041434 1.042615 0.000000
v -2.041434 1.042615 0.650474
v -2.041434 1.042615 -0.650474
v 2.041434 1.042615 1.300947
v -2.041434 1.342192 1.300947
v -2.333067 1.342192 1.300947
v -2.333067 1.342192 -0.650474
v -2.333067 1.342192 -1.300947
v -2.333067 1.342192 0.650474
v -2.333067 1.342192 0.000000
v -2.041434 1.342192 -1.300947
v -2.041434 1.342192 0.000000
v -2.041434 1.342192 0.650474
v -2.041434 1.342192 -0.650474
v -2.333067 -0.874078 0.650474
v -2.333067 -0.874078 1.300947
v -2.041434 -0.874078 -1.300947
v -2.333067 -0.874078 -1.300947
v 2.041434 -0.874078 1.300947
v 2.333067 -0.874078 1.300947
v 2.333067 -0.874078 -0.650474
v 2.333067 -0.874078 -1.300947
v -2.041434 -0.874078 1.300947
v -1.749801 -0.874078 1.300947
v -1.749801 -0.874078 0.650474
v 2.333067 -0.874078 0.650474
v -2.041434 -0.874078 0.650474
v 2.041434 -0.874078 -1.300947
v 1.749801 -0.874078 -1.300947
v 2.041434 -0.874078 0.650474
v 1.749801 -0.874078 0.650474
v 1.749801 -0.874078 1.300947
v -2.333067 -0.874078 -0.650474
v -1.749801 -0.874078 -1.300947
v -1.749801 -0.874078 -0.650474
v 1.749801 -0.874078 -0.650474
v 2.041434 -0.874078 -0.650474
v -2.041434 -0.874078 -0.650474
vt 0.625000 0.625000
vt 0.625000 0.687500
vt 0.625000 0.687500
vt 0.625000 0.984375
vt 0.375000 1.000000
vt 0.375000 0.984375
vt 0.625000 0.187500
vt 0.375000 0.250000
vt 0.375000 0.187500
vt 0.343750 0.687500
vt 0.343750 0.750000
vt 0.343750 0.750000
vt 0.375000 0.750000
vt 0.375000 0.687500
vt 0.625000 0.484375
vt 0.375000 0.500000
vt 0.375000 0.484375
vt 0.625000 0.312500
vt 0.375000 0.375000
vt 0.375000 0.312500
vt 0.250000 0.687500
vt 0.187500 0.750000
vt 0.187500 0.687500
vt 0.625000 0.812500
vt 0.375000 0.875000
vt 0.375000 0.812500
vt 0.750000 0.687500
vt 0.687500 0.750000
vt 0.687500 0.687500
vt 0.156250 0.750000
vt 0.156250 0.687500
vt 0.625000 0.281250
vt 0.375000 0.281250
vt 0.625000 0.875000
vt 0.375000 0.937500
vt 0.812500 0.687500
vt 0.750000 0.750000
vt 0.625000 0.265625
vt 0.375000 0.265625
vt 0.156250 0.687500
vt 0.625000 0.937500
vt 0.375000 0.968750
vt 0.843750 0.687500
vt 0.812500 0.750000
vt 0.843750 0.562500
vt 0.812500 0.625000
vt 0.812500 0.562500
vt 0.156250 0.562500
vt 0.140625 0.625000
vt 0.140625 0.562500
vt 0.750000 0.625000
vt 0.750000 0.562500
vt 0.187500 0.562500
vt 0.156250 0.625000
vt 0.687500 0.625000
vt 0.687500 0.562500
vt 0.250000 0.562500
vt 0.187500 0.625000
vt 0.625000 0.562500
vt 0.375000 0.625000
vt 0.375000 0.562500
vt 0.359375 0.625000
vt 0.359375 0.562500
vt 0.625000 0.062500
vt 0.375000 0.125000
vt 0.375000 0.062500
vt 0.640625 0.687500
vt 0.640625 0.625000
vt 0.640625 0.625000
vt 0.625000 0.000000
vt 0.375000 0.000000
vt 0.843750 0.625000
vt 0.140625 0.687500
vt 0.250000 0.625000
vt 0.359375 0.687500
vt 0.625000 0.062500
vt 0.312500 0.625000
vt 0.656250 0.687500
vt 0.656250 0.625000
vt 0.312500 0.562500
vt 0.656250 0.562500
vt 0.656250 0.750000
vt 0.625000 0.781250
vt 0.375000 0.781250
vt 0.625000 0.375000
vt 0.375000 0.437500
vt 0.312500 0.687500
vt 0.250000 0.750000
vt 0.625000 0.765625
vt 0.375000 0.765625
vt 0.640625 0.750000
vt 0.640625 0.562500
vt 0.343750 0.625000
vt 0.343750 0.562500
vt 0.625000 0.437500
vt 0.375000 0.468750
vt 0.312500 0.750000
vt 0.343750 0.500000
vt 0.312500 0.500000
vt 0.656250 0.500000
vt 0.640625 0.500000
vt 0.687500 0.500000
vt 0.250000 0.500000
vt 0.625000 0.125000
vt 0.625000 0.187500
vt 0.343750 0.687500
vt 0.625000 0.500000
vt 0.187500 0.500000
vt 0.750000 0.500000
vt 0.156250 0.500000
vt 0.812500 0.500000
vt 0.375000 0.265625
vt 0.843750 0.500000
vt 0.343750 0.562500
vt 0.859375 0.500000
vt 0.859375 0.625000
vt 0.125000 0.687500
vt 0.125000 0.625000
vt 0.859375 0.562500
vt 0.125000 0.562500
vt 0.375000 0.562500
vt 0.625000 0.250000
vt 0.625000 0.968750
vt 0.859375 0.687500
vt 0.843750 0.750000
vt 0.125000 0.687500
vt 0.640625 0.500000
vt 0.625000 0.500000
vt 0.859375 0.625000
vt 0.625000 0.250000
vt 0.625000 0.750000
vt 0.625000 0.468750
vt 0.140625 0.687500
vt 0.859375 0.687500
vt 0.859375 0.750000
vt 0.859375 0.750000
vt 0.625000 0.265625
vt 0.625000 0.265625
vt 0.859375 0.562500
vt 0.859375 0.625000
vt 0.625000 0.250000
vt 0.625000 0.562500
vt 0.625000 0.625000
vt 0.640625 0.562500
vt 0.640625 0.687500
vt 0.625000 0.750000
vt 0.625000 0.765625
vt 0.625000 1.000000
vt 0.625000 1.000000
vt 0.859375 0.750000
vt 0.625000 0.125000
vt 0.875000 0.687500
vt 0.859375 0.687500
vt 0.875000 0.562500
vt 0.859375 0.562500
vt 0.875000 0.625000
vt 0.875000 0.500000
vt 0.859375 0.500000
vt 0.625000 0.187500
vt 0.859375 0.500000
vt 0.625000 0.984375
vt 0.625000 1.000000
vt 0.625000 0.000000
vt 0.625000 0.062500
vt 0.625000 0.125000
vt 0.375000 0.687500
vt 0.359375 0.750000
vt 0.359375 0.687500
vt 0.140625 0.750000
vt 0.375000 0.500000
vt 0.359375 0.562500
vt 0.359375 0.500000
vt 0.156250 0.500000
vt 0.140625 0.562500
vt 0.140625 0.500000
vt 0.125000 0.562500
vt 0.125000 0.500000
vt 0.125000 0.750000
vt 0.343750 0.500000
vt 0.156250 0.562500
vt 0.375000 0.484375
vt 0.375000 0.984375
vt 0.375000 0.187500
vt 0.375000 0.468750
vt 0.375000 0.000000
vt 0.375000 0.968750
vt 0.375000 0.765625
vt 0.375000 0.750000
vt 0.375000 0.250000
vt 0.156250 0.750000
vt 0.375000 0.281250
vt 0.625000 0.484375
vt 0.640625 0.750000
vt 0.875000 0.750000
vt 0.625000 0.984375
vt 0.625000 0.000000
vt 0.375000 1.000000
vt 0.375000 0.062500
vt 0.375000 0.781250
vn 1.0000 0.0000 0.0000
vn 0.0000 0.0000 1.0000
vn -1.0000 0.0000 0.0000
vn 0.0000 0.0000 -1.0000
vn 0.0000 -1.0000 0.0000
vn 0.0000 1.0000 0.0000
usemtl Material
s off
f 22/1/1 93/2/1 32/3/1
f 72/4/2 8/5/2 73/6/2
f 57/7/3 6/8/3 59/9/3
f 56/10/3 138/11/3 49/12/3
f 32/3/1 4/13/1 40/14/1
f 82/15/4 2/16/4 85/17/4
f 16/18/4 9/19/4 13/20/4
f 33/21/5 15/22/5 35/23/5
f 44/24/2 11/25/2 41/26/2
f 34/27/6 44/28/6 47/29/6
f 35/23/5 19/30/5 37/31/5
f 20/32/4 13/20/4 17/33/4
f 10/34/2 15/35/2 11/25/2
f 36/36/6 10/37/6 34/27/6
f 74/38/4 17/33/4 71/39/4
f 19/30/1 131/40/1 37/31/1
f 14/41/2 19/42/2 15/35/2
f 38/43/6 14/44/6 36/36/6
f 66/45/6 28/46/6 64/47/6
f 65/48/5 75/49/5 80/50/5
f 64/47/6 26/51/6 62/52/6
f 63/53/5 29/54/5 65/48/5
f 62/52/6 45/55/6 68/56/6
f 61/57/5 27/58/5 63/53/5
f 60/59/1 24/60/1 58/61/1
f 58/61/5 87/62/5 90/63/5
f 39/64/3 21/65/3 31/66/3
f 84/67/3 103/68/3 83/69/3
f 7/70/3 31/66/3 8/71/3
f 30/72/6 36/36/6 28/46/6
f 29/54/5 77/73/5 75/49/5
f 28/46/6 34/27/6 26/51/6
f 27/58/5 37/31/5 29/54/5
f 26/51/6 47/29/6 45/55/6
f 25/74/5 35/23/5 27/58/5
f 22/1/1 40/14/1 24/60/1
f 24/60/5 88/75/5 87/62/5
f 7/70/3 101/76/3 39/64/3
f 46/77/5 33/21/5 25/74/5
f 45/55/6 52/78/6 51/79/6
f 67/80/5 25/74/5 61/57/5
f 68/56/6 51/79/6 69/81/6
f 47/29/6 54/82/6 52/78/6
f 54/83/2 41/26/2 49/84/2
f 12/85/4 43/86/4 9/19/4
f 48/87/5 11/88/5 33/21/5
f 86/89/2 49/84/2 81/90/2
f 52/78/6 86/91/6 84/67/6
f 69/81/6 83/69/6 89/92/6
f 51/79/6 84/67/6 83/69/6
f 55/93/5 48/87/5 46/77/5
f 70/94/5 46/77/5 67/80/5
f 42/95/4 53/96/4 43/86/4
f 56/10/5 41/97/5 48/87/5
f 53/98/5 67/80/5 43/99/5
f 50/100/6 89/92/6 82/101/6
f 42/102/6 69/81/6 50/100/6
f 43/99/5 61/57/5 9/103/5
f 23/104/3 95/105/3 57/7/3
f 88/75/4 137/106/4 56/10/4
f 1/107/1 58/61/1 2/16/1
f 9/103/5 63/53/5 13/108/5
f 12/109/6 68/56/6 42/102/6
f 13/108/5 65/48/5 17/110/5
f 16/111/6 62/52/6 12/109/6
f 17/33/4 123/112/4 71/39/4
f 20/113/6 64/47/6 16/111/6
f 23/104/3 59/9/3 21/65/3
f 53/98/3 142/114/3 70/94/3
f 74/115/6 66/45/6 20/113/6
f 76/116/6 38/43/6 30/72/6
f 75/49/5 31/117/5 21/118/5
f 79/119/6 30/72/6 66/45/6
f 80/50/5 21/118/5 59/120/5
f 90/63/2 127/121/2 58/61/2
f 5/122/4 71/39/4 6/8/4
f 18/123/2 73/6/2 19/42/2
f 78/124/6 18/125/6 38/43/6
f 77/73/4 121/126/4 31/117/4
f 89/92/3 97/127/3 82/101/3
f 82/15/4 98/128/4 1/107/4
f 79/119/1 107/129/1 76/116/1
f 57/7/3 96/130/3 5/122/3
f 3/131/2 81/90/2 4/13/2
f 87/62/5 56/10/5 55/93/5
f 90/63/5 55/93/5 70/94/5
f 50/132/4 85/17/4 53/96/4
f 37/31/4 133/133/4 77/73/4
f 108/134/1 111/135/1 91/136/1
f 96/130/4 117/137/4 106/138/4
f 109/139/1 118/140/1 107/129/1
f 95/105/3 114/141/3 96/130/3
f 97/127/6 99/142/6 98/128/6
f 103/68/6 93/2/6 100/143/6
f 105/144/6 100/143/6 99/142/6
f 104/145/6 94/146/6 93/2/6
f 3/131/2 110/147/2 86/89/2
f 5/122/4 106/138/4 74/38/4
f 72/4/2 92/148/2 7/149/2
f 83/69/3 105/144/3 89/92/3
f 74/115/1 109/139/1 79/119/1
f 78/124/1 91/136/1 72/150/1
f 32/3/1 94/146/1 3/131/1
f 86/91/3 104/145/3 84/67/3
f 60/59/1 100/143/1 22/1/1
f 1/107/1 99/142/1 60/59/1
f 76/116/1 108/134/1 78/124/1
f 39/64/3 102/151/3 23/104/3
f 115/152/6 111/135/6 119/153/6
f 113/154/6 118/140/6 120/155/6
f 116/156/6 119/153/6 118/140/6
f 114/157/6 120/155/6 117/158/6
f 102/151/3 113/159/3 95/105/3
f 106/160/1 120/155/1 109/139/1
f 91/161/2 112/162/2 92/148/2
f 107/129/1 119/153/1 108/134/1
f 92/163/3 115/164/3 101/76/3
f 101/76/3 116/165/3 102/151/3
f 132/166/5 125/167/5 136/168/5
f 131/40/5 129/169/5 133/133/5
f 128/170/5 143/171/5 134/172/5
f 140/173/5 144/174/5 123/175/5
f 123/175/5 139/176/5 124/177/5
f 133/133/5 122/178/5 121/126/5
f 134/172/5 142/114/5 135/179/5
f 136/168/5 138/11/5 137/106/5
f 58/61/1 128/170/1 2/16/1
f 80/50/2 141/180/2 65/48/2
f 2/16/4 134/181/4 85/17/4
f 8/5/2 129/182/2 73/6/2
f 65/48/1 140/173/1 17/110/1
f 4/13/1 132/166/1 40/14/1
f 6/8/3 139/183/3 59/9/3
f 59/120/2 144/174/2 80/50/2
f 85/17/4 135/184/4 53/96/4
f 31/66/3 122/185/3 8/71/3
f 40/14/4 136/168/4 88/75/4
f 73/6/2 130/186/2 19/42/2
f 49/84/2 125/187/2 81/90/2
f 81/90/2 126/188/2 4/13/2
f 71/39/4 124/189/4 6/8/4
f 70/94/2 143/171/2 90/63/2
f 22/1/1 100/143/1 93/2/1
f 72/4/2 7/149/2 8/5/2
f 57/7/3 5/122/3 6/8/3
f 56/10/3 137/106/3 138/11/3
f 32/3/1 3/131/1 4/13/1
f 82/15/4 1/107/4 2/16/4
f 16/18/4 12/85/4 9/19/4
f 33/21/5 11/88/5 15/22/5
f 44/24/2 10/34/2 11/25/2
f 34/27/6 10/37/6 44/28/6
f 35/23/5 15/22/5 19/30/5
f 20/32/4 16/18/4 13/20/4
f 10/34/2 14/41/2 15/35/2
f 36/36/6 14/44/6 10/37/6
f 74/38/4 20/32/4 17/33/4
f 19/30/1 130/190/1 131/40/1
f 14/41/2 18/123/2 19/42/2
f 38/43/6 18/125/6 14/44/6
f 66/45/6 30/72/6 28/46/6
f 65/48/5 29/54/5 75/49/5
f 64/47/6 28/46/6 26/51/6
f 63/53/5 27/58/5 29/54/5
f 62/52/6 26/51/6 45/55/6
f 61/57/5 25/74/5 27/58/5
f 60/59/1 22/1/1 24/60/1
f 58/61/5 24/60/5 87/62/5
f 39/64/3 23/104/3 21/65/3
f 84/67/3 104/145/3 103/68/3
f 7/70/3 39/64/3 31/66/3
f 30/72/6 38/43/6 36/36/6
f 29/54/5 37/31/5 77/73/5
f 28/46/6 36/36/6 34/27/6
f 27/58/5 35/23/5 37/31/5
f 26/51/6 34/27/6 47/29/6
f 25/74/5 33/21/5 35/23/5
f 22/1/1 32/3/1 40/14/1
f 24/60/5 40/14/5 88/75/5
f 7/70/3 92/163/3 101/76/3
f 46/77/5 48/87/5 33/21/5
f 45/55/6 47/29/6 52/78/6
f 67/80/5 46/77/5 25/74/5
f 68/56/6 45/55/6 51/79/6
f 47/29/6 44/28/6 54/82/6
f 54/83/2 44/24/2 41/26/2
f 12/85/4 42/95/4 43/86/4
f 48/87/5 41/97/5 11/88/5
f 86/89/2 54/83/2 49/84/2
f 52/78/6 54/82/6 86/91/6
f 69/81/6 51/79/6 83/69/6
f 51/79/6 52/78/6 84/67/6
f 55/93/5 56/10/5 48/87/5
f 70/94/5 55/93/5 46/77/5
f 42/95/4 50/132/4 53/96/4
f 56/10/5 49/12/5 41/97/5
f 53/98/5 70/94/5 67/80/5
f 50/100/6 69/81/6 89/92/6
f 42/102/6 68/56/6 69/81/6
f 43/99/5 67/80/5 61/57/5
f 23/104/3 102/151/3 95/105/3
f 88/75/4 136/168/4 137/106/4
f 1/107/1 60/59/1 58/61/1
f 9/103/5 61/57/5 63/53/5
f 12/109/6 62/52/6 68/56/6
f 13/108/5 63/53/5 65/48/5
f 16/111/6 64/47/6 62/52/6
f 17/33/4 140/191/4 123/112/4
f 20/113/6 66/45/6 64/47/6
f 23/104/3 57/7/3 59/9/3
f 53/98/3 135/179/3 142/114/3
f 74/115/6 79/119/6 66/45/6
f 76/116/6 78/124/6 38/43/6
f 75/49/5 77/73/5 31/117/5
f 79/119/6 76/116/6 30/72/6
f 80/50/5 75/49/5 21/118/5
f 90/63/2 143/171/2 127/121/2
f 5/122/4 74/38/4 71/39/4
f 18/123/2 72/4/2 73/6/2
f 78/124/6 72/150/6 18/125/6
f 77/73/4 133/133/4 121/126/4
f 89/92/3 105/144/3 97/127/3
f 82/15/4 97/192/4 98/128/4
f 79/119/1 109/139/1 107/129/1
f 57/7/3 95/105/3 96/130/3
f 3/131/2 86/89/2 81/90/2
f 87/62/5 88/75/5 56/10/5
f 90/63/5 87/62/5 55/93/5
f 50/132/4 82/15/4 85/17/4
f 37/31/4 131/40/4 133/133/4
f 108/134/1 119/153/1 111/135/1
f 96/130/4 114/141/4 117/137/4
f 109/139/1 120/155/1 118/140/1
f 95/105/3 113/159/3 114/141/3
f 97/127/6 105/144/6 99/142/6
f 103/68/6 104/145/6 93/2/6
f 105/144/6 103/68/6 100/143/6
f 104/145/6 110/193/6 94/146/6
f 3/131/2 94/146/2 110/147/2
f 5/122/4 96/130/4 106/138/4
f 72/4/2 91/161/2 92/148/2
f 83/69/3 103/68/3 105/144/3
f 74/115/1 106/160/1 109/139/1
f 78/124/1 108/134/1 91/136/1
f 32/3/1 93/2/1 94/146/1
f 86/91/3 110/193/3 104/145/3
f 60/59/1 99/142/1 100/143/1
f 1/107/1 98/128/1 99/142/1
f 76/116/1 107/129/1 108/134/1
f 39/64/3 101/76/3 102/151/3
f 115/152/6 112/194/6 111/135/6
f 113/154/6 116/156/6 118/140/6
f 116/156/6 115/152/6 119/153/6
f 114/157/6 113/154/6 120/155/6
f 102/151/3 116/165/3 113/159/3
f 106/160/1 117/158/1 120/155/1
f 91/161/2 111/195/2 112/162/2
f 107/129/1 118/140/1 119/153/1
f 92/163/3 112/196/3 115/164/3
f 101/76/3 115/164/3 116/165/3
f 132/166/5 126/188/5 125/167/5
f 131/40/5 130/190/5 129/169/5
f 128/170/5 127/121/5 143/171/5
f 140/173/5 141/180/5 144/174/5
f 123/175/5 144/174/5 139/176/5
f 133/133/5 129/169/5 122/178/5
f 134/172/5 143/171/5 142/114/5
f 136/168/5 125/167/5 138/11/5
f 58/61/1 127/121/1 128/170/1
f 80/50/2 144/174/2 141/180/2
f 2/16/4 128/170/4 134/181/4
f 8/5/2 122/197/2 129/182/2
f 65/48/1 141/180/1 140/173/1
f 4/13/1 126/188/1 132/166/1
f 6/8/3 124/189/3 139/183/3
f 59/120/2 139/176/2 144/174/2
f 85/17/4 134/181/4 135/184/4
f 31/66/3 121/198/3 122/185/3
f 40/14/4 132/166/4 136/168/4
f 73/6/2 129/182/2 130/186/2
f 49/84/2 138/199/2 125/187/2
f 81/90/2 125/187/2 126/188/2
f 71/39/4 123/112/4 124/189/4
f 70/94/2 142/114/2 143/171/2
