# Blender v3.2.2 OBJ File: 'couch1.blend'
# www.blender.org
mtllib couch1.mtl
o Cube_Cube.001
v -1.000000 -0.239021 2.742092
v -1.000000 0.239021 2.742092
v -1.000000 -0.239021 -2.742092
v -1.000000 0.239021 -2.742092
v 1.000000 -0.239021 2.742092
v 1.000000 0.239021 2.742092
v 1.000000 -0.239021 -2.742092
v 1.000000 0.239021 -2.742092
v -1.000000 -0.239021 0.000000
v -1.000000 0.239021 0.000000
v 1.000000 -0.239021 0.000000
v 1.000000 0.239021 0.000000
v -1.000000 -0.239021 1.371046
v 1.000000 0.239021 1.371046
v -1.000000 0.239021 1.371046
v 1.000000 -0.239021 1.371046
v -1.000000 -0.239021 2.056569
v 1.000000 0.239021 2.056569
v -1.000000 0.239021 2.056569
v 1.000000 -0.239021 2.056569
v -1.000000 0.239021 -1.371046
v 1.000000 -0.239021 -1.371046
v -1.000000 -0.239021 -1.371046
v 1.000000 0.239021 -1.371046
v -1.000000 0.239021 -2.056569
v 1.000000 -0.239021 -2.056569
v -1.000000 -0.239021 -2.056569
v 1.000000 0.239021 -2.056569
v 0.000000 -0.239021 -2.742092
v 0.000000 0.239021 -2.742092
v 0.000000 -0.239021 2.742092
v 0.000000 0.239021 2.742092
v 0.000000 0.239021 0.000000
v 0.000000 -0.239021 0.000000
v 0.000000 0.239021 1.371046
v 0.000000 -0.239021 1.371046
v 0.000000 0.239021 2.056569
v 0.000000 -0.239021 2.056569
v 0.000000 -0.239021 -1.371046
v 0.000000 0.239021 -1.371046
v 0.000000 0.239021 -2.056569
v 0.000000 -0.239021 -2.056569
v -0.500000 -0.239021 -2.742092
v -0.500000 0.239021 2.742092
v -0.500000 -0.239021 0.000000
v -0.500000 -0.239021 1.371046
v -0.500000 -0.239021 2.056569
v -0.500000 -0.239021 -1.371046
v -0.500000 -0.239021 -2.056569
v -0.500000 0.239021 -2.742092
v -0.500000 -0.239021 2.742092
v -0.500000 0.239021 0.000000
v -0.500000 0.239021 1.371046
v -0.500000 0.239021 2.056569
v -0.500000 0.239021 -1.371046
v -0.500000 0.239021 -2.056569
v -1.000000 0.898505 -2.056569
v -1.000000 0.898505 -2.742092
v 0.000000 0.898505 -2.742092
v 1.000000 0.898505 -2.742092
v 1.000000 0.898505 2.056569
v 1.000000 0.898505 2.742092
v -0.500000 0.898505 2.742092
v -1.000000 0.898505 2.742092
v -1.000000 0.898505 1.371046
v -1.000000 0.898505 0.000000
v -1.000000 0.898505 2.056569
v 0.000000 0.898505 2.056569
v -1.000000 0.898505 -1.371046
v 1.000000 0.898505 -2.056569
v 0.000000 0.898505 -2.056569
v -0.500000 0.898505 -2.742092
v 0.000000 0.898505 2.742092
v -0.500000 0.898505 2.056569
v -0.500000 0.898505 -2.056569
v -0.500000 0.898505 0.000000
v -0.500000 0.898505 1.371046
v -0.500000 0.898505 -1.371046
v -1.000000 2.106166 -2.056569
v -1.000000 1.533735 -2.742092
v -0.500000 1.533735 2.742092
v -1.000000 1.533735 2.742092
v -1.000000 2.106166 1.371046
v -1.000000 2.106166 0.000000
v -1.000000 2.106166 2.056569
v -1.000000 2.106166 -1.371046
v -0.500000 1.533735 -2.742092
v -0.500000 2.106166 0.000000
v -0.500000 2.106166 1.371046
v -0.500000 2.106166 2.056569
v -0.500000 2.106166 -1.371046
v -0.500000 2.106166 -2.056569
v 0.500000 0.239021 -2.742092
v 0.500000 -0.239021 2.742092
v 0.500000 0.239021 0.000000
v 0.500000 0.239021 1.371046
v 0.500000 0.239021 2.056569
v 0.500000 0.239021 -1.371046
v 0.500000 0.239021 -2.056569
v 0.500000 -0.239021 -2.742092
v 0.500000 0.239021 2.742092
v 0.500000 -0.239021 0.000000
v 0.500000 -0.239021 1.371046
v 0.500000 -0.239021 2.056569
v 0.500000 -0.239021 -1.371046
v 0.500000 -0.239021 -2.056569
v 0.500000 0.898505 -2.742092
v 0.500000 0.898505 2.056569
v 0.500000 0.898505 -2.056569
v 0.500000 0.898505 2.742092
v -1.000000 -0.466585 2.056569
v -1.000000 -0.466585 2.742092
v -0.500000 -0.466585 -2.742092
v -1.000000 -0.466585 -2.742092
v 1.000000 -0.466585 -2.056569
v 1.000000 -0.466585 -2.742092
v 0.500000 -0.466585 2.742092
v 1.000000 -0.466585 2.742092
v 1.000000 -0.466585 2.056569
v -0.500000 -0.466585 2.056569
v -1.000000 -0.466585 -2.056569
v -0.500000 -0.466585 -2.056569
v -0.500000 -0.466585 2.742092
v 0.500000 -0.466585 -2.742092
v 0.500000 -0.466585 2.056569
v 0.500000 -0.466585 -2.056569
vt 0.625000 0.218750
vt 0.375000 0.250000
vt 0.375000 0.218750
vt 0.625000 0.437500
vt 0.375000 0.500000
vt 0.375000 0.437500
vt 0.625000 0.718750
vt 0.375000 0.750000
vt 0.375000 0.718750
vt 0.625000 0.937500
vt 0.375000 1.000000
vt 0.375000 0.937500
vt 0.312500 0.718750
vt 0.312500 0.750000
vt 0.312500 0.750000
vt 0.812500 0.625000
vt 0.812500 0.687500
vt 0.812500 0.687500
vt 0.625000 0.031250
vt 0.625000 0.062500
vt 0.625000 0.062500
vt 0.375000 0.562500
vt 0.312500 0.625000
vt 0.312500 0.562500
vt 0.625000 0.562500
vt 0.375000 0.625000
vt 0.375000 0.125000
vt 0.375000 0.062500
vt 0.375000 0.031250
vt 0.625000 0.187500
vt 0.625000 0.218750
vt 0.312500 0.687500
vt 0.625000 0.625000
vt 0.375000 0.687500
vt 0.625000 0.000000
vt 0.375000 0.000000
vt 0.625000 0.875000
vt 0.625000 0.937500
vt 0.625000 0.687500
vt 0.625000 0.531250
vt 0.375000 0.531250
vt 0.312500 0.531250
vt 0.812500 0.718750
vt 0.812500 0.718750
vt 0.625000 0.125000
vt 0.375000 0.187500
vt 0.625000 0.187500
vt 0.375000 0.937500
vt 0.625000 0.500000
vt 0.250000 0.500000
vt 0.187500 0.531250
vt 0.187500 0.500000
vt 0.812500 0.531250
vt 0.812500 0.562500
vt 0.812500 0.562500
vt 0.750000 0.531250
vt 0.687500 0.562500
vt 0.687500 0.531250
vt 0.250000 0.531250
vt 0.187500 0.562500
vt 0.250000 0.687500
vt 0.187500 0.718750
vt 0.187500 0.687500
vt 0.750000 0.687500
vt 0.687500 0.718750
vt 0.687500 0.687500
vt 0.250000 0.625000
vt 0.187500 0.625000
vt 0.750000 0.625000
vt 0.687500 0.625000
vt 0.250000 0.562500
vt 0.750000 0.562500
vt 0.625000 0.125000
vt 0.250000 0.718750
vt 0.187500 0.750000
vt 0.625000 0.812500
vt 0.375000 0.875000
vt 0.375000 0.812500
vt 0.625000 0.312500
vt 0.375000 0.375000
vt 0.375000 0.312500
vt 0.625000 0.250000
vt 0.187500 0.718750
vt 0.125000 0.625000
vt 0.125000 0.562500
vt 0.125000 0.687500
vt 0.125000 0.718750
vt 0.125000 0.531250
vt 0.312500 0.718750
vt 0.625000 0.312500
vt 0.750000 0.718750
vt 0.625000 0.375000
vt 0.625000 0.437500
vt 0.625000 0.125000
vt 0.812500 0.531250
vt 0.812500 0.562500
vt 0.625000 1.000000
vt 0.625000 1.000000
vt 0.812500 0.500000
vt 0.812500 0.531250
vt 0.625000 0.218750
vt 0.625000 0.187500
vt 0.750000 0.500000
vt 0.687500 0.531250
vt 0.687500 0.500000
vt 0.750000 0.718750
vt 0.687500 0.750000
vt 0.687500 0.718750
vt 0.812500 0.500000
vt 0.750000 0.531250
vt 0.750000 0.750000
vt 0.625000 0.031250
vt 0.625000 0.750000
vt 0.625000 0.750000
vt 0.625000 0.375000
vt 0.812500 0.625000
vt 0.625000 0.250000
vt 0.625000 0.531250
vt 0.625000 0.812500
vt 0.625000 1.000000
vt 0.875000 0.718750
vt 0.812500 0.750000
vt 0.812500 0.718750
vt 0.875000 0.562500
vt 0.812500 0.625000
vt 0.875000 0.625000
vt 0.812500 0.687500
vt 0.875000 0.687500
vt 0.875000 0.531250
vt 0.875000 0.500000
vt 0.625000 0.312500
vt 0.625000 0.062500
vt 0.625000 0.000000
vt 0.625000 0.031250
vt 0.625000 0.250000
vt 0.812500 0.750000
vt 0.625000 0.718750
vt 0.625000 0.875000
vt 0.625000 0.500000
vt 0.312500 0.500000
vt 0.250000 0.750000
vt 0.375000 0.718750
vt 0.375000 0.500000
vt 0.312500 0.531250
vt 0.312500 0.500000
vt 0.125000 0.750000
vt 0.125000 0.718750
vt 0.187500 0.500000
vt 0.125000 0.531250
vt 0.125000 0.500000
vt 0.375000 0.000000
vt 0.375000 0.531250
vt 0.375000 0.218750
vt 0.375000 0.437500
vt 0.375000 0.750000
vt 0.375000 0.250000
vt 0.187500 0.531250
vt 0.375000 1.000000
vt 0.187500 0.750000
vt 0.625000 0.937500
vt 0.625000 0.000000
vt 0.875000 0.750000
vt 0.375000 0.031250
vt 0.375000 0.812500
vt 0.375000 0.312500
vn -1.0000 0.0000 0.0000
vn 0.0000 0.0000 -1.0000
vn 1.0000 0.0000 0.0000
vn 0.0000 0.0000 1.0000
vn 0.0000 -1.0000 0.0000
vn 0.0000 1.0000 0.0000
vn 0.0000 0.7676 0.6410
vn 0.0000 0.7676 -0.6410
usemtl None
s off
f 25/1/1 3/2/1 27/3/1
f 93/4/2 7/5/2 100/6/2
f 18/7/3 5/8/3 20/9/3
f 44/10/4 1/11/4 51/12/4
f 104/13/1 117/14/1 94/15/1
f 52/16/3 77/17/3 53/18/3
f 19/19/1 65/20/1 15/21/1
f 22/22/5 102/23/5 105/24/5
f 24/25/3 11/26/3 22/22/3
f 15/21/1 9/27/1 13/28/1
f 19/19/1 13/28/1 17/29/1
f 21/30/1 57/31/1 25/1/1
f 11/26/5 103/32/5 102/23/5
f 12/33/3 16/34/3 11/26/3
f 2/35/1 17/29/1 1/36/1
f 32/37/4 63/38/4 44/10/4
f 16/34/5 104/13/5 103/32/5
f 14/39/3 20/9/3 16/34/3
f 28/40/3 22/22/3 26/41/3
f 26/41/5 105/24/5 106/42/5
f 53/18/3 74/43/3 54/44/3
f 10/45/1 23/46/1 9/27/1
f 10/45/1 69/47/1 21/30/1
f 1/11/4 123/48/4 51/12/4
f 8/49/3 26/41/3 7/5/3
f 21/30/1 27/3/1 23/46/1
f 29/50/5 49/51/5 43/52/5
f 56/53/3 78/54/3 55/55/3
f 41/56/6 98/57/6 99/58/6
f 42/59/5 48/60/5 49/51/5
f 36/61/5 47/62/5 46/63/5
f 35/64/6 97/65/6 96/66/6
f 34/67/5 46/63/5 45/68/5
f 33/69/6 96/66/6 95/70/6
f 39/71/5 45/68/5 48/60/5
f 40/72/6 95/70/6 98/57/6
f 15/21/1 66/73/1 10/45/1
f 38/74/5 51/75/5 47/62/5
f 101/76/4 31/77/4 94/78/4
f 50/79/2 29/80/2 43/81/2
f 4/82/2 43/81/2 3/2/2
f 51/75/3 120/83/3 47/62/3
f 48/60/5 9/84/5 23/85/5
f 45/68/5 13/86/5 9/84/5
f 46/63/5 17/87/5 13/86/5
f 49/51/5 23/85/5 27/88/5
f 20/9/2 125/89/2 104/13/2
f 4/82/2 72/90/2 50/79/2
f 56/53/6 40/72/6 41/56/6
f 53/18/6 37/91/6 35/64/6
f 52/16/6 35/64/6 33/69/6
f 55/55/6 33/69/6 40/72/6
f 30/92/2 107/93/2 93/4/2
f 32/37/4 51/12/4 31/77/4
f 65/20/1 84/94/1 66/73/1
f 75/95/3 91/96/3 78/54/3
f 63/38/4 82/97/4 64/98/4
f 75/95/3 87/99/3 92/100/3
f 69/47/1 79/101/1 57/31/1
f 66/73/1 86/102/1 69/47/1
f 59/103/6 109/104/6 107/105/6
f 68/106/6 110/107/6 108/108/6
f 72/109/6 71/110/6 59/103/6
f 74/43/6 73/111/6 68/106/6
f 2/35/1 67/112/1 19/19/1
f 18/7/3 62/113/3 6/114/3
f 54/44/2 68/106/2 37/91/2
f 50/79/2 59/115/2 30/92/2
f 55/55/3 76/116/3 52/16/3
f 25/1/1 58/117/1 4/82/1
f 8/49/3 70/118/3 28/40/3
f 6/114/4 110/119/4 101/76/4
f 37/91/2 108/108/2 97/65/2
f 44/10/4 64/98/4 2/120/4
f 28/40/4 109/104/4 99/58/4
f 41/56/4 75/95/4 56/53/4
f 85/121/7 81/122/7 90/123/7
f 86/124/6 88/125/6 91/96/6
f 84/126/6 89/127/6 88/125/6
f 83/128/6 90/123/6 89/127/6
f 79/129/6 91/96/6 92/100/6
f 80/130/8 92/100/8 87/99/8
f 58/117/2 87/131/2 72/90/2
f 77/17/3 90/123/3 74/43/3
f 67/112/1 83/132/1 65/20/1
f 76/116/3 89/127/3 77/17/3
f 67/112/1 82/133/1 85/134/1
f 78/54/3 88/125/3 76/116/3
f 57/31/1 80/135/1 58/117/1
f 74/43/3 81/122/3 63/136/3
f 99/58/4 71/110/4 41/56/4
f 97/65/2 61/137/2 18/7/2
f 101/76/4 73/138/4 32/37/4
f 108/108/6 62/113/6 61/137/6
f 107/105/6 70/118/6 60/139/6
f 93/4/2 60/139/2 8/49/2
f 6/114/4 94/78/4 5/8/4
f 98/57/6 12/33/6 24/25/6
f 95/70/6 14/39/6 12/33/6
f 96/66/6 18/7/6 14/39/6
f 99/58/6 24/25/6 28/40/6
f 100/140/5 42/59/5 29/50/5
f 106/42/5 39/71/5 42/59/5
f 103/32/5 38/74/5 36/61/5
f 102/23/5 36/61/5 34/67/5
f 105/24/5 34/67/5 39/71/5
f 104/13/5 31/141/5 38/74/5
f 30/92/2 100/6/2 29/80/2
f 119/142/5 117/14/5 125/89/5
f 116/143/5 126/144/5 124/145/5
f 120/83/5 112/146/5 111/147/5
f 113/148/5 121/149/5 114/150/5
f 26/41/3 116/143/3 7/5/3
f 17/29/1 112/151/1 1/36/1
f 106/42/4 115/152/4 26/41/4
f 5/8/3 119/142/3 20/9/3
f 3/2/1 121/153/1 27/3/1
f 100/140/1 126/144/1 106/42/1
f 7/5/2 124/154/2 100/6/2
f 94/78/4 118/155/4 5/8/4
f 49/51/3 113/148/3 43/52/3
f 43/81/2 114/156/2 3/2/2
f 47/62/2 111/147/2 17/87/2
f 27/88/4 122/157/4 49/51/4
f 25/1/1 4/82/1 3/2/1
f 93/4/2 8/49/2 7/5/2
f 18/7/3 6/114/3 5/8/3
f 44/10/4 2/120/4 1/11/4
f 104/13/1 125/89/1 117/14/1
f 52/16/3 76/116/3 77/17/3
f 19/19/1 67/112/1 65/20/1
f 22/22/5 11/26/5 102/23/5
f 24/25/3 12/33/3 11/26/3
f 15/21/1 10/45/1 9/27/1
f 19/19/1 15/21/1 13/28/1
f 21/30/1 69/47/1 57/31/1
f 11/26/5 16/34/5 103/32/5
f 12/33/3 14/39/3 16/34/3
f 2/35/1 19/19/1 17/29/1
f 32/37/4 73/138/4 63/38/4
f 16/34/5 20/9/5 104/13/5
f 14/39/3 18/7/3 20/9/3
f 28/40/3 24/25/3 22/22/3
f 26/41/5 22/22/5 105/24/5
f 53/18/3 77/17/3 74/43/3
f 10/45/1 21/30/1 23/46/1
f 10/45/1 66/73/1 69/47/1
f 1/11/4 112/158/4 123/48/4
f 8/49/3 28/40/3 26/41/3
f 21/30/1 25/1/1 27/3/1
f 29/50/5 42/59/5 49/51/5
f 56/53/3 75/95/3 78/54/3
f 41/56/6 40/72/6 98/57/6
f 42/59/5 39/71/5 48/60/5
f 36/61/5 38/74/5 47/62/5
f 35/64/6 37/91/6 97/65/6
f 34/67/5 36/61/5 46/63/5
f 33/69/6 35/64/6 96/66/6
f 39/71/5 34/67/5 45/68/5
f 40/72/6 33/69/6 95/70/6
f 15/21/1 65/20/1 66/73/1
f 38/74/5 31/141/5 51/75/5
f 101/76/4 32/37/4 31/77/4
f 50/79/2 30/92/2 29/80/2
f 4/82/2 50/79/2 43/81/2
f 51/75/3 123/159/3 120/83/3
f 48/60/5 45/68/5 9/84/5
f 45/68/5 46/63/5 13/86/5
f 46/63/5 47/62/5 17/87/5
f 49/51/5 48/60/5 23/85/5
f 20/9/2 119/142/2 125/89/2
f 4/82/2 58/117/2 72/90/2
f 56/53/6 55/55/6 40/72/6
f 53/18/6 54/44/6 37/91/6
f 52/16/6 53/18/6 35/64/6
f 55/55/6 52/16/6 33/69/6
f 30/92/2 59/115/2 107/93/2
f 32/37/4 44/10/4 51/12/4
f 65/20/1 83/132/1 84/94/1
f 75/95/3 92/100/3 91/96/3
f 63/38/4 81/160/4 82/97/4
f 75/95/3 72/109/3 87/99/3
f 69/47/1 86/102/1 79/101/1
f 66/73/1 84/94/1 86/102/1
f 59/103/6 71/110/6 109/104/6
f 68/106/6 73/111/6 110/107/6
f 72/109/6 75/95/6 71/110/6
f 74/43/6 63/136/6 73/111/6
f 2/35/1 64/161/1 67/112/1
f 18/7/3 61/137/3 62/113/3
f 54/44/2 74/43/2 68/106/2
f 50/79/2 72/90/2 59/115/2
f 55/55/3 78/54/3 76/116/3
f 25/1/1 57/31/1 58/117/1
f 8/49/3 60/139/3 70/118/3
f 6/114/4 62/113/4 110/119/4
f 37/91/2 68/106/2 108/108/2
f 44/10/4 63/38/4 64/98/4
f 28/40/4 70/118/4 109/104/4
f 41/56/4 71/110/4 75/95/4
f 85/121/7 82/162/7 81/122/7
f 86/124/6 84/126/6 88/125/6
f 84/126/6 83/128/6 89/127/6
f 83/128/6 85/121/6 90/123/6
f 79/129/6 86/124/6 91/96/6
f 80/130/8 79/129/8 92/100/8
f 58/117/2 80/135/2 87/131/2
f 77/17/3 89/127/3 90/123/3
f 67/112/1 85/134/1 83/132/1
f 76/116/3 88/125/3 89/127/3
f 67/112/1 64/161/1 82/133/1
f 78/54/3 91/96/3 88/125/3
f 57/31/1 79/101/1 80/135/1
f 74/43/3 90/123/3 81/122/3
f 99/58/4 109/104/4 71/110/4
f 97/65/2 108/108/2 61/137/2
f 101/76/4 110/119/4 73/138/4
f 108/108/6 110/107/6 62/113/6
f 107/105/6 109/104/6 70/118/6
f 93/4/2 107/93/2 60/139/2
f 6/114/4 101/76/4 94/78/4
f 98/57/6 95/70/6 12/33/6
f 95/70/6 96/66/6 14/39/6
f 96/66/6 97/65/6 18/7/6
f 99/58/6 98/57/6 24/25/6
f 100/140/5 106/42/5 42/59/5
f 106/42/5 105/24/5 39/71/5
f 103/32/5 104/13/5 38/74/5
f 102/23/5 103/32/5 36/61/5
f 105/24/5 102/23/5 34/67/5
f 104/13/5 94/15/5 31/141/5
f 30/92/2 93/4/2 100/6/2
f 119/142/5 118/155/5 117/14/5
f 116/143/5 115/152/5 126/144/5
f 120/83/5 123/159/5 112/146/5
f 113/148/5 122/157/5 121/149/5
f 26/41/3 115/152/3 116/143/3
f 17/29/1 111/163/1 112/151/1
f 106/42/4 126/144/4 115/152/4
f 5/8/3 118/155/3 119/142/3
f 3/2/1 114/156/1 121/153/1
f 100/140/1 124/145/1 126/144/1
f 7/5/2 116/143/2 124/154/2
f 94/78/4 117/164/4 118/155/4
f 49/51/3 122/157/3 113/148/3
f 43/81/2 113/165/2 114/156/2
f 47/62/2 120/83/2 111/147/2
f 27/88/4 121/149/4 122/157/4
