# Blender v3.2.2 OBJ File: 'lamp2.blend'
# www.blender.org
mtllib lamp2.mtl
o Cylinder
v -0.000000 -1.000000 -0.696842
v 0.000000 -0.183042 -1.000000
v 0.603483 -1.000000 -0.348421
v 0.866025 -0.183042 -0.500000
v 0.603483 -1.000000 0.348421
v 0.866025 -0.183042 0.500000
v -0.000000 -1.000000 0.696842
v -0.000000 -0.183042 1.000000
v -0.603483 -1.000000 0.348421
v -0.866025 -0.183042 0.500000
v -0.603483 -1.000000 -0.348421
v -0.866025 -0.183042 -0.500000
v 0.981776 0.426843 -0.566828
v -0.000000 0.426843 -1.133657
v 0.981776 0.426843 0.566829
v -0.000000 0.426843 1.133657
v -0.981776 0.426843 0.566828
v -0.981776 0.426843 -0.566828
v 0.687796 1.290081 -0.397099
v -0.000000 1.290081 -0.794198
v 0.687796 1.290081 0.397099
v -0.000000 1.290081 0.794198
v -0.687796 1.290081 0.397099
v -0.687796 1.290081 -0.397099
v 0.576875 1.668645 -0.333059
v -0.000000 1.668645 -0.666118
v 0.576875 1.668645 0.333059
v -0.000000 1.668645 0.666118
v -0.576875 1.668645 0.333059
v -0.576875 1.668645 -0.333059
v 0.408755 2.035734 -0.235995
v -0.000000 2.035734 -0.471989
v 0.408755 2.035734 0.235995
v -0.000000 2.035734 0.471989
v -0.408755 2.035734 0.235995
v -0.408755 2.035734 -0.235995
v 0.779010 2.035734 -0.449762
v -0.000000 2.035734 -0.899523
v 0.779010 2.035734 0.449762
v -0.000000 2.035734 0.899523
v -0.779010 2.035734 0.449762
v -0.779010 2.035734 -0.449762
v 0.408755 3.073629 -0.235995
v 0.000000 3.073629 -0.471989
v 0.408755 3.073629 0.235995
v -0.000000 3.073629 0.471989
v -0.408755 3.073629 0.235995
v -0.408755 3.073629 -0.235995
v 1.983770 3.262601 -1.145330
v -0.000000 3.262601 -2.290660
v 1.983770 3.262601 1.145330
v -0.000001 3.262601 2.290660
v -1.983770 3.262601 1.145330
v -1.983770 3.262601 -1.145330
v 0.657619 5.184235 -0.379676
v 0.000000 5.184235 -0.759352
v 0.657618 5.184235 0.379676
v -0.000000 5.184235 0.759352
v -0.657618 5.184235 0.379676
v -0.657618 5.184235 -0.379676
vt 1.000000 1.000000
vt 0.833333 0.500000
vt 1.000000 0.500000
vt 0.833333 1.000000
vt 0.666667 0.500000
vt 0.666667 1.000000
vt 0.500000 0.500000
vt 0.333333 1.000000
vt 0.333333 0.500000
vt 0.166667 1.000000
vt 0.166667 1.000000
vt 0.166667 0.500000
vt -0.000000 0.500000
vt 0.957846 0.370000
vt 0.750000 0.010000
vt 0.542154 0.370000
vt -0.000000 1.000000
vt -0.000000 1.000000
vt 1.000000 1.000000
vt 0.833333 1.000000
vt 0.500000 1.000000
vt 0.500000 1.000000
vt -0.000000 1.000000
vt 0.333333 1.000000
vt 0.666667 1.000000
vt 0.333333 1.000000
vt 0.166667 1.000000
vt 0.166667 1.000000
vt 0.666667 1.000000
vt 0.500000 1.000000
vt 0.833333 1.000000
vt -0.000000 1.000000
vt 0.166667 1.000000
vt -0.000000 1.000000
vt 0.666667 1.000000
vt 0.500000 1.000000
vt 1.000000 1.000000
vt 0.833333 1.000000
vt 0.333333 1.000000
vt 0.359059 0.312965
vt 0.359059 0.187035
vt 0.359059 0.187035
vt 0.333333 1.000000
vt 0.666667 1.000000
vt 0.500000 1.000000
vt 1.000000 1.000000
vt 0.833333 1.000000
vt 0.250000 0.490000
vt 0.250000 0.375930
vt 0.457846 0.370000
vt 0.250000 0.124070
vt 0.457846 0.130000
vt 0.042154 0.130000
vt 0.250000 0.010000
vt 0.140941 0.312965
vt 0.140941 0.187035
vt 0.042154 0.370000
vt 0.359059 0.312965
vt 0.250000 0.375930
vt 0.359059 0.312965
vt 0.140941 0.312965
vt 0.250000 0.124070
vt 0.250000 0.375930
vt 0.140941 0.187035
vt 0.140941 0.312965
vt 0.250000 0.375930
vt 0.250000 0.124070
vt 0.140941 0.187035
vt 0.359059 0.187035
vt 0.250000 0.124070
vt 0.359059 0.187035
vt 0.140941 0.187035
vt 0.140941 0.312965
vt 0.359059 0.312965
vt 0.750000 0.490000
vt 0.957846 0.130000
vt 0.542154 0.130000
vt 1.000000 1.000000
vn 0.4760 -0.3060 -0.8245
vn 0.9520 -0.3060 0.0000
vn 0.4760 -0.3060 0.8245
vn -0.4760 -0.3060 0.8245
vn -0.9825 -0.1865 0.0000
vn -0.9520 -0.3060 0.0000
vn -0.4760 -0.3060 -0.8245
vn 0.0000 -1.0000 0.0000
vn -0.4733 0.3224 -0.8198
vn 0.4912 -0.1865 -0.8508
vn 0.4912 -0.1865 0.8508
vn -0.4912 -0.1865 -0.8508
vn -0.4912 -0.1865 0.8508
vn 0.9825 -0.1865 0.0000
vn -0.9597 0.2812 0.0000
vn -0.4733 0.3224 0.8198
vn 0.9466 0.3224 0.0000
vn -0.9466 0.3224 0.0000
vn 0.4733 0.3224 0.8198
vn 0.4733 0.3224 -0.8198
vn -0.4380 -0.4824 -0.7586
vn 0.4798 0.2812 0.8311
vn 0.4798 0.2812 -0.8311
vn -0.4798 0.2812 -0.8311
vn -0.4798 0.2812 0.8311
vn 0.9597 0.2812 0.0000
vn 1.0000 -0.0000 0.0000
vn -0.4380 -0.4824 0.7586
vn 0.8760 -0.4824 0.0000
vn -0.8760 -0.4824 0.0000
vn 0.4380 -0.4824 0.7586
vn 0.4380 -0.4824 -0.7586
vn 0.0000 1.0000 0.0000
vn 0.0596 -0.9929 -0.1032
vn -1.0000 0.0000 0.0000
vn 0.5000 -0.0000 0.8660
vn 0.5000 -0.0000 -0.8660
vn -0.5000 0.0000 -0.8660
vn -0.5000 0.0000 0.8660
vn -0.4115 0.5680 -0.7128
vn -0.0596 -0.9929 -0.1032
vn -0.0596 -0.9929 0.1032
vn 0.1191 -0.9929 0.0000
vn -0.1191 -0.9929 0.0000
vn 0.0596 -0.9929 0.1032
vn -0.4115 0.5680 0.7128
vn 0.8230 0.5680 0.0000
vn -0.8230 0.5680 0.0000
vn 0.4115 0.5680 0.7128
vn 0.4115 0.5680 -0.7128
usemtl None
s off
f 2/1/1 3/2/1 1/3/1
f 4/4/2 5/5/2 3/2/2
f 6/6/3 7/7/3 5/5/3
f 7/7/4 10/8/4 9/9/4
f 10/8/5 18/10/5 12/11/5
f 10/8/6 11/12/6 9/9/6
f 12/11/7 1/13/7 11/12/7
f 3/14/8 7/15/8 11/16/8
f 18/10/9 20/17/9 14/18/9
f 4/4/10 14/19/10 13/20/10
f 6/6/11 16/21/11 8/22/11
f 12/11/12 14/18/12 2/23/12
f 8/22/13 17/24/13 10/8/13
f 4/4/14 15/25/14 6/6/14
f 23/26/15 30/27/15 24/28/15
f 16/21/16 23/26/16 17/24/16
f 13/20/17 21/29/17 15/25/17
f 17/24/18 24/28/18 18/10/18
f 15/25/19 22/30/19 16/21/19
f 14/19/20 19/31/20 13/20/20
f 26/32/21 42/33/21 38/34/21
f 22/30/22 27/35/22 28/36/22
f 19/31/23 26/37/23 25/38/23
f 20/17/24 30/27/24 26/32/24
f 22/30/25 29/39/25 23/26/25
f 19/31/26 27/35/26 21/29/26
f 31/40/27 45/41/27 33/42/27
f 28/36/28 41/43/28 29/39/28
f 25/38/29 39/44/29 27/35/29
f 29/39/30 42/33/30 30/27/30
f 27/35/31 40/45/31 28/36/31
f 25/38/32 38/46/32 37/47/32
f 31/40/33 38/48/33 32/49/33
f 33/42/33 37/50/33 31/40/33
f 34/51/33 39/52/33 33/42/33
f 34/51/33 41/53/33 40/54/33
f 36/55/33 41/53/33 35/56/33
f 32/49/33 42/57/33 36/55/33
f 43/58/34 50/59/34 49/60/34
f 35/56/35 48/61/35 36/55/35
f 33/42/36 46/62/36 34/51/36
f 32/49/37 43/58/37 31/40/37
f 36/55/38 44/63/38 32/49/38
f 34/51/39 47/64/39 35/56/39
f 54/65/40 56/66/40 50/59/40
f 48/61/41 50/59/41 44/63/41
f 47/64/42 52/67/42 53/68/42
f 43/58/43 51/69/43 45/41/43
f 47/64/44 54/65/44 48/61/44
f 45/41/45 52/67/45 46/62/45
f 58/70/33 57/71/33 56/66/33
f 52/67/46 59/72/46 53/68/46
f 49/60/47 57/71/47 51/69/47
f 54/65/48 59/72/48 60/73/48
f 51/69/49 58/70/49 52/67/49
f 50/59/50 55/74/50 49/60/50
f 2/1/1 4/4/1 3/2/1
f 4/4/2 6/6/2 5/5/2
f 6/6/3 8/22/3 7/7/3
f 7/7/4 8/22/4 10/8/4
f 10/8/5 17/24/5 18/10/5
f 10/8/6 12/11/6 11/12/6
f 12/11/7 2/23/7 1/13/7
f 11/16/8 1/75/8 3/14/8
f 3/14/8 5/76/8 7/15/8
f 7/15/8 9/77/8 11/16/8
f 18/10/9 24/28/9 20/17/9
f 4/4/10 2/1/10 14/19/10
f 6/6/11 15/25/11 16/21/11
f 12/11/12 18/10/12 14/18/12
f 8/22/13 16/21/13 17/24/13
f 4/4/14 13/20/14 15/25/14
f 23/26/15 29/39/15 30/27/15
f 16/21/16 22/30/16 23/26/16
f 13/20/17 19/31/17 21/29/17
f 17/24/18 23/26/18 24/28/18
f 15/25/19 21/29/19 22/30/19
f 14/19/20 20/78/20 19/31/20
f 26/32/21 30/27/21 42/33/21
f 22/30/22 21/29/22 27/35/22
f 19/31/23 20/78/23 26/37/23
f 20/17/24 24/28/24 30/27/24
f 22/30/25 28/36/25 29/39/25
f 19/31/26 25/38/26 27/35/26
f 31/40/27 43/58/27 45/41/27
f 28/36/28 40/45/28 41/43/28
f 25/38/29 37/47/29 39/44/29
f 29/39/30 41/43/30 42/33/30
f 27/35/31 39/44/31 40/45/31
f 25/38/32 26/37/32 38/46/32
f 31/40/33 37/50/33 38/48/33
f 33/42/33 39/52/33 37/50/33
f 34/51/33 40/54/33 39/52/33
f 34/51/33 35/56/33 41/53/33
f 36/55/33 42/57/33 41/53/33
f 32/49/33 38/48/33 42/57/33
f 43/58/34 44/63/34 50/59/34
f 35/56/35 47/64/35 48/61/35
f 33/42/36 45/41/36 46/62/36
f 32/49/37 44/63/37 43/58/37
f 36/55/38 48/61/38 44/63/38
f 34/51/39 46/62/39 47/64/39
f 54/65/40 60/73/40 56/66/40
f 48/61/41 54/65/41 50/59/41
f 47/64/42 46/62/42 52/67/42
f 43/58/43 49/60/43 51/69/43
f 47/64/44 53/68/44 54/65/44
f 45/41/45 51/69/45 52/67/45
f 57/71/33 55/74/33 56/66/33
f 56/66/33 60/73/33 59/72/33
f 59/72/33 58/70/33 56/66/33
f 52/67/46 58/70/46 59/72/46
f 49/60/47 55/74/47 57/71/47
f 54/65/48 53/68/48 59/72/48
f 51/69/49 57/71/49 58/70/49
f 50/59/50 56/66/50 55/74/50
